<svg xmlns="http://www.w3.org/2000/svg" width="256" height="32"><path d="M237.3 18.7c.6-1.2 1.4-2.6 2.2-4 .9-1.5 1.8-2.9 2.9-4.4 1.1-1.5 1.9-2.4 2.4-2.9s.9-.9 1.3-1.1c.3-.3 1-.5 1.8-.6.9-.1 1.5-.2 2-.2.3 0 .5.1.7.3.2.2.3.4.3.7 0 .2-.1.4-.2.6-.1.2-.3.4-.7.7-1.7 1.4-3.4 3.5-5.3 6.2-1.8 2.7-3.3 5.3-4.3 7.8-.5 1.2-.8 1.8-1 2-.1.2-.4.4-.7.6-.3.2-.9.3-1.8.3-.7 0-1.2 0-1.4-.1-.2-.1-.4-.2-.5-.3-.1-.1-.4-.5-.9-1.2-.5-.8-1.3-1.7-2.3-2.7-.6-.6-.9-1.1-.9-1.5 0-.6.3-1.1 1-1.5.7-.4 1.3-.7 1.8-.7.6 0 1.2.2 1.8.6.7.2 1.3.7 1.8 1.4zm-20.4-.8h-7.1V25h-3.7v-7.1H199v-3.6h7.1v-7h3.7v7.1h7.1v3.5z"/><path fill="none" stroke="#666" stroke-miterlimit="10" d="M180 11.5h-18"/><path fill="none" stroke="gray" stroke-miterlimit="10" d="M180 14.5h-18m18 3h-18"/><path fill="none" stroke="#666" stroke-miterlimit="10" d="M180 23.5h-18m18-3h-18m18-12h-18"/><ellipse cx="181.3" cy="16" rx="8.3" ry="8.5"/><path d="M134.5 14.6c1.1-.1 1.4-.6 1.4-1.9v-2.3c0-2.3.9-4.4 5.5-4.4 0 .9-.2 1.7-.6 2.3-1.2.1-1.7.5-1.7 1.6v3c0 1.4-.4 2.4-1.8 2.7v.2c1.3.3 1.8 1.2 1.8 2.6v3.5c0 1.2.6 1.7 2.1 1.7.2.5.1 1.9-.2 2.4-4.5 0-5.2-1.8-5.2-4.3v-2.9c0-1.1-.3-1.8-1.9-1.9.1-.8.3-1.8.6-2.3zm17.6-4.3v2.4c0 1.1.3 1.8 1.4 1.9.3.6.5 1.5.5 2.3-1.6.1-1.9.7-1.9 1.8v2.9c0 2.9-.9 4.4-5.1 4.4-.4-.5-.5-1.8-.2-2.4 1.6 0 2.1-.6 2.1-1.9v-3.2c0-1.5.5-2.4 1.8-2.7v-.2c-1.4-.3-1.8-1.2-1.8-2.6v-3c0-1.2-.6-1.7-2-1.7 0-.8.3-1.7.8-2.2 3.8.3 4.4 2 4.4 4.2z"/><g fill="none" stroke="#000" stroke-width="2" stroke-miterlimit="10"><path d="M100 7h24v18h-24z"/><path d="M101 21l7-5 3 3 8-7 4 5"/></g><g fill="none" stroke="#000" stroke-miterlimit="10"><path stroke-width="2" d="M67 9h26m-26 7h26m-26 7h26"/><path stroke-width="4" d="M87 6v6m-14 1v6m8 1v6"/></g><path d="M41.5 22.8c-.5 1-1.5 1.7-3 1.7-1.9 0-3.5-1-3.5-3.7 0-2.8 1.9-3.9 4.4-3.9.7 0 1.3.1 2 .3v-.3c0-1.4-.6-1.9-2.1-1.9-1.3 0-2.5.4-3.5 1-.3-.9-.2-2.3.3-3.1.8-.5 2.1-.8 3.7-.8 3.1 0 4.6 1.2 4.6 4.6v4c0 .7.3.9.7.9.4 0 .7-.1.9-.3.1.9-.2 2.1-.6 2.7-.5.3-1.1.5-1.8.5-1.3 0-1.9-.6-2.1-1.7zm-.1-3.4c-.4-.2-.9-.3-1.4-.3-1.3 0-1.9.6-1.9 1.4 0 .9.6 1.2 1.5 1.2.7 0 1.4-.2 1.8-.8v-1.5zm15.2.9h-5.5L50 23.8c-.4.2-.9.3-1.7.3-.8 0-1.3-.1-1.6-.3l5.2-16.1c.5-.1 1.2-.2 1.9-.2.8 0 1.5.1 2 .2L61 23.8c-.3.2-.9.3-1.7.3s-1.3-.1-1.7-.3l-1-3.5zm-.9-2.9l-.8-2.7c-.4-1.4-.8-3.1-1-4.7h-.2c-.2 1.7-.6 3.4-1 4.8l-.8 2.6h3.8zM9.1 8c.7.4 1.5 1.4 1.9 2.4l-5.2 5.2v.2l5 5.1c-.2 1.2-.8 2.6-1.5 3L3 17.2c0-1.1.1-2.3.3-3.1L9.1 8zm5.1 18.2c-1 .1-2.1-.3-2.6-.8l6-19.5c1-.1 1.9.1 2.6.4l-6 19.9zm8.4-2.2c-.7-.5-1.4-1.9-1.5-3.1l5-5v-.2L21 10.3c.5-1 1.2-1.9 2-2.3l5.7 5.9c.2.9.3 2.1.3 3.1l-6.4 7z"/></svg>