<svg xmlns="http://www.w3.org/2000/svg" viewBox="0 0 256 256"><path d="M128 26c56.243 0 102 45.757 102 102s-45.757 102-102 102S26 184.243 26 128 71.757 26 128 26m0-1C71.115 25 25 71.115 25 128c0 56.886 46.115 103 103 103 56.886 0 103-46.114 103-103 0-56.885-46.114-103-103-103z" opacity=".2"/><path opacity=".2" fill="none" stroke="#000" stroke-miterlimit="10" d="M243.5 223.5c0 11.046-8.954 20-20 20h-191c-11.046 0-20-8.954-20-20v-191c0-11.046 8.954-20 20-20h191c11.046 0 20 8.954 20 20v191z"/><path d="M152.839 34.624l-12.799 77.891-.573 3.485h42.534l-79.02 105.357 12.978-77.864.583-3.493H73.992l78.847-105.376M157.789 23L68 143h45l-15 90 90.001-120H143l14.789-90z" opacity=".6"/></svg>